<?xml version="1.0" encoding="utf-8"?>
<!-- Generator: Adobe Illustrator 22.1.0, SVG Export Plug-In . SVG Version: 6.00 Build 0)  -->
<svg version="1.1" id="Layer_1" xmlns="http://www.w3.org/2000/svg" xmlns:xlink="http://www.w3.org/1999/xlink" x="0px" y="0px"
	 viewBox="0 0 600 600" style="enable-background:new 0 0 600 600;" xml:space="preserve">
<style type="text/css">
	.st0{fill:#00B7DC;}
	.st1{fill:#2B0633;}
	.st2{fill:#FF8700;}
	.st3{fill:#FFCB00;}
	.st4{fill:#FF461F;}
	.st5{fill:none;stroke:#2B0633;stroke-width:5;stroke-linecap:round;stroke-linejoin:round;stroke-miterlimit:10;}
	.st6{fill:#FFF7DB;}
</style>
<g id="Kevin_Light">
	<rect class="st0" width="600" height="600"/>
	<path class="st1" d="M13.9,623.9c24.5-75.1,93.2-155.5,286.4-155.5c187.4,0,257.7,75.7,284.1,148.8C600.2,661.1,2.5,659,13.9,623.9
		z"/>
	<path class="st2" d="M329.9,533.5h-60c-22,0-40-18-40-40v-130c0-22,18-40,40-40h60c22,0,40,18,40,40v130
		C369.9,515.5,351.9,533.5,329.9,533.5z"/>
	<path class="st2" d="M139.5,274.2c-0.5,27.6,20.9,80.4,48.5,80.9c27.6,0.5,50.9-51.5,51.4-79.1c0.5-27.6-21.5-50.4-49.1-50.9
		C162.8,224.6,140,246.6,139.5,274.2z"/>
	<path class="st2" d="M458.9,274.1c0.5,27.6-20.9,80.4-48.5,80.9s-51-51.4-51.5-79c-0.5-27.6,21.4-50.4,49-50.9
		C435.6,224.6,458.4,246.5,458.9,274.1z"/>
	<path class="st1" d="M384.2,301h-170c-27.5,0-50-22.5-50-50V151c0-74,30-114,134.5-114C337,37,361,78.1,361,78.1
		c28.2,0,73.2,29.9,73.2,72.9v100C434.2,278.5,411.7,301,384.2,301z"/>
	<path class="st3" d="M179.2,365V191c0-57,45.8-94,119.5-94c69.7,0,120.5,36,120.5,94v174c0,44.7-50,127.9-120,127.9
		S179.2,409.7,179.2,365z"/>
	<path class="st1" d="M231.8,205.3c-31.1,0-52.8,27.2-37.9,27.2H268c10.6,0,8.6-27.2-9.2-27.2C247.5,205.3,240.2,205.3,231.8,205.3z
		"/>
	<path class="st1" d="M366.7,205.3c31.1,0,52.8,27.2,37.9,27.2h-74.1c-10.6,0-8.6-27.2,9.2-27.2C351,205.3,358.3,205.3,366.7,205.3z
		"/>
	<path class="st2" d="M350.2,400.5c0,0.4-14.4-11.2-38.5-11.2c-7.7,0-8.9,2.9-13,2.9c-4.2,0-5.2-3-13-3c-25.8,0-38.5,11.8-38.5,11.4
		h0.1c0,0.1-0.1,0.3-0.1,0.4c0,0,0,12.8,51.5,12.8s51.5-12.8,51.5-12.8C350.2,400.8,350.2,400.6,350.2,400.5L350.2,400.5z"/>
	<path class="st2" d="M194.5,257.6c0-7.8,69.8-8.7,69.8-0.9s0,34.1-35,34.1S194.5,265.4,194.5,257.6z"/>
	<path class="st2" d="M337,353.1c0-1.8-0.2-3.8-0.7-5.9c-2.6-12.4-21.6-105.2-21.6-105.2c0-6.6-5.4-12-12-12h-0.5h-5.5h-0.5
		c-6.6,0-12,5.4-12,12c0,0-19,92.8-21.6,105.2c-0.5,2.1-0.7,4.1-0.7,5.9c0,4.1,1.3,6.9,4.3,6.9h0.5h65.5h0.5
		C335.8,360,337.1,357.2,337,353.1z"/>
	<path class="st2" d="M404,257.6c0-7.8-69.8-8.7-69.8-0.9s0,34.1,35,34.1S404,265.4,404,257.6z"/>
	<path class="st1" d="M264.4,255.7c0-0.4-0.2-0.8-0.5-1.1c-2.8-6.7-17.2-11.8-34.6-11.9c-17.4-0.1-31.8,4.9-34.6,11.6
		c-0.3,0.3-0.5,0.7-0.5,1.1c0,0.2,0,0.4,0,0.6c0,0.2,0,0.4,0,0.6c0,0.4,0.2,0.8,0.5,1.1c2.8,6.7,17.2,11.8,34.6,11.9
		c17.4,0.1,31.8-4.9,34.6-11.6c0.3-0.3,0.5-0.7,0.5-1.1c0-0.2,0-0.4,0-0.6C264.3,256.1,264.4,255.9,264.4,255.7z"/>
	<path class="st1" d="M334.1,255.7c0-0.4,0.2-0.8,0.5-1.1c2.8-6.7,17.2-11.8,34.6-11.9c17.4-0.1,31.8,4.9,34.6,11.6
		c0.3,0.3,0.5,0.7,0.5,1.1c0,0.2,0,0.4,0,0.6c0,0.2,0,0.4,0,0.6c0,0.4-0.2,0.8-0.5,1.1c-2.8,6.7-17.2,11.8-34.6,11.9
		c-17.4,0.1-31.8-4.9-34.6-11.6c-0.3-0.3-0.5-0.7-0.5-1.1c0-0.2,0-0.4,0-0.6C334.2,256.1,334.1,255.9,334.1,255.7z"/>
	<line class="st5" x1="269.2" y1="401" x2="329.2" y2="401"/>
</g>
</svg>
