<?xml version="1.0" encoding="utf-8"?>
<!-- Generator: Adobe Illustrator 22.1.0, SVG Export Plug-In . SVG Version: 6.00 Build 0)  -->
<svg version="1.1" id="Layer_1" xmlns="http://www.w3.org/2000/svg" xmlns:xlink="http://www.w3.org/1999/xlink" x="0px" y="0px"
	 viewBox="0 0 600 600" style="enable-background:new 0 0 600 600;" xml:space="preserve">
<style type="text/css">
	.st0{fill:#00B7DC;}
	.st1{fill:#2B0633;}
	.st2{fill:#FF8700;}
	.st3{fill:#FFCB00;}
	.st4{fill:#FF461F;}
	.st5{fill:none;stroke:#2B0633;stroke-width:5;stroke-linecap:round;stroke-linejoin:round;stroke-miterlimit:10;}
	.st6{fill:#FFF7DB;}
</style>
<g id="Logan_Dark_1_">
	<rect y="-1" class="st3" width="600" height="600"/>
	<path class="st1" d="M16,616.2c26.4-73.1,96.7-148.8,284.1-148.8c184.3,0,255.3,73.1,282.7,145.1C600,657.7,0.2,660.1,16,616.2z"/>
	<path class="st4" d="M339.7,532.4h-80c-22,0-40-18-40-40v-130c0-22,18-40,40-40h80c22,0,40,18,40,40v130
		C379.7,514.4,361.7,532.4,339.7,532.4z"/>
	<path class="st4" d="M129,274c0,27.6,22.4,80,50,80s50-52.4,50-80c0-27.6-22.4-50-50-50S129,246.4,129,274z"/>
	<path class="st4" d="M469,274c0,27.6-22.4,80-50,80s-50-52.4-50-80c0-27.6,22.4-50,50-50S469,246.4,469,274z"/>
	<path class="st1" d="M384,300H214c-27.5,0-50-22.5-50-50V110c0-27.5,22.5-50,50-50c66.6,0,72.1-30,150-30c71.4,0,70,52.5,70,80v140
		C434,277.5,411.5,300,384,300z"/>
	<path class="st2" d="M179,344V160c0-27.5,22.5-50,50-50h140c27.5,0,50,22.5,50,50v184c0,44.7-50,147.9-120,147.9S179,388.6,179,344
		z"/>
	<path class="st1" d="M229,110c66.6,0,89.9,117.9,190,50V81.6l-64.9-9L229,110z"/>
	<path class="st4" d="M322,339h-46c-11.8,0,8-25.4,8-32V201c0-6.6,5.4-12,12-12h6c6.6,0,12,5.4,12,12v106
		C314,313.6,335.2,339,322,339z"/>
	<path class="st1" d="M267.8,221.5h-66c-6.6,0-12-5.4-12-12v-6c0-6.6,5.4-12,12-12h26C260.7,191.5,282.7,221.5,267.8,221.5z"/>
	<path class="st4" d="M194.2,252.7c0-7.8,70-7.8,70,0c0,7.8,0,34.1-35,34.1S194.2,260.5,194.2,252.7z"/>
	<path class="st4" d="M335.2,252.7c0-7.8,70-7.8,70,0c0,7.8,0,34.1-35,34.1S335.2,260.5,335.2,252.7z"/>
	<path class="st1" d="M331.5,221.5h66c6.6,0,12-5.4,12-12v-6c0-6.6-5.4-12-12-12h-26C338.7,191.5,316.7,221.5,331.5,221.5z"/>
	<path class="st6" d="M264.2,250.9c0,7.8-70,7.8-70,0c0-7.8,15.7-14.1,35-14.1S264.2,243.1,264.2,250.9z"/>
	<path class="st6" d="M335.2,250.9c0,7.8,70,7.8,70,0c0-7.8-15.7-14.1-35-14.1C350.8,236.8,335.2,243.1,335.2,250.9z"/>
	<path class="st4" d="M350,399.5c0-15.2-12.3-27.5-27.5-27.5c-10.3,0-19.3,2.7-24,11.1c-4.7-8.4-13.7-11.1-24-11.1
		c-15.2,0-27.5,12.3-27.5,27.5h0.1c0,0.1-0.1,0.3-0.1,0.4c0,11.5,23.1,20.8,51.5,20.8s51.5-9.3,51.5-20.8
		C350,399.7,350,399.6,350,399.5L350,399.5z"/>
	<line class="st5" x1="264" y1="400" x2="334" y2="400"/>
</g>
</svg>
