<?xml version="1.0" encoding="utf-8"?>
<!-- Generator: Adobe Illustrator 22.1.0, SVG Export Plug-In . SVG Version: 6.00 Build 0)  -->
<svg version="1.1" id="Layer_1" xmlns="http://www.w3.org/2000/svg" xmlns:xlink="http://www.w3.org/1999/xlink" x="0px" y="0px"
	 viewBox="0 0 600 600" style="enable-background:new 0 0 600 600;" xml:space="preserve">
<style type="text/css">
	.st0{fill:#00B7DC;}
	.st1{fill:#2B0633;}
	.st2{fill:#FF8700;}
	.st3{fill:#FFCB00;}
	.st4{fill:#FF461F;}
	.st5{fill:none;stroke:#2B0633;stroke-width:5;stroke-linecap:round;stroke-linejoin:round;stroke-miterlimit:10;}
	.st6{fill:#FFF7DB;}
</style>
<g id="Logan_Light">
	<rect class="st0" width="600" height="600"/>
	<path class="st1" d="M16,617.3c26.4-73.1,96.7-148.8,284.1-148.8c184.3,0,255.3,73.1,282.7,145.1C600,658.7,0.2,661.1,16,617.3z"/>
	<path class="st2" d="M339.7,533.5h-80c-22,0-40-18-40-40v-130c0-22,18-40,40-40h80c22,0,40,18,40,40v130
		C379.7,515.5,361.7,533.5,339.7,533.5z"/>
	<path class="st2" d="M129,275.1c0,27.6,22.4,80,50,80s50-52.4,50-80c0-27.6-22.4-50-50-50S129,247.5,129,275.1z"/>
	<path class="st2" d="M469,275.1c0,27.6-22.4,80-50,80s-50-52.4-50-80c0-27.6,22.4-50,50-50S469,247.5,469,275.1z"/>
	<path class="st1" d="M384,301H214c-27.5,0-50-22.5-50-50V111c0-27.5,22.5-50,50-50c66.6,0,72.1-30,150-30c71.4,0,70,52.5,70,80v140
		C434,278.5,411.5,301,384,301z"/>
	<path class="st3" d="M179,345V161c0-27.5,22.5-50,50-50h140c27.5,0,50,22.5,50,50v184c0,44.7-50,147.9-120,147.9S179,389.7,179,345
		z"/>
	<path class="st1" d="M229,111c66.6,0,89.9,117.9,190,50V82.6l-64.9-9L229,111z"/>
	<path class="st2" d="M322,340h-46c-11.8,0,8-25.4,8-32V202c0-6.6,5.4-12,12-12h6c6.6,0,12,5.4,12,12v106
		C314,314.6,335.2,340,322,340z"/>
	<path class="st1" d="M267.8,222.5h-66c-6.6,0-12-5.4-12-12v-6c0-6.6,5.4-12,12-12h26C260.7,192.5,282.7,222.5,267.8,222.5z"/>
	<path class="st2" d="M194.2,253.7c0-7.8,70-7.8,70,0c0,7.8,0,34.1-35,34.1S194.2,261.5,194.2,253.7z"/>
	<path class="st2" d="M335.2,253.7c0-7.8,70-7.8,70,0c0,7.8,0,34.1-35,34.1S335.2,261.5,335.2,253.7z"/>
	<path class="st1" d="M331.5,222.5h66c6.6,0,12-5.4,12-12v-6c0-6.6-5.4-12-12-12h-26C338.7,192.5,316.7,222.5,331.5,222.5z"/>
	<path class="st1" d="M264.2,252c0,7.8-70,7.8-70,0c0-7.8,15.7-14.1,35-14.1S264.2,244.2,264.2,252z"/>
	<path class="st1" d="M335.2,252c0,7.8,70,7.8,70,0c0-7.8-15.7-14.1-35-14.1C350.8,237.8,335.2,244.2,335.2,252z"/>
	<path class="st2" d="M350,400.5c0-15.2-12.3-27.5-27.5-27.5c-10.3,0-19.3,2.7-24,11.1c-4.7-8.4-13.7-11.1-24-11.1
		c-15.2,0-27.5,12.3-27.5,27.5h0.1c0,0.1-0.1,0.3-0.1,0.4c0,11.5,23.1,20.8,51.5,20.8s51.5-9.3,51.5-20.8
		C350,400.8,350,400.6,350,400.5L350,400.5z"/>
	<line class="st5" x1="264" y1="401" x2="334" y2="401"/>
</g>
</svg>
