<?xml version="1.0" encoding="utf-8"?>
<!-- Generator: Adobe Illustrator 22.1.0, SVG Export Plug-In . SVG Version: 6.00 Build 0)  -->
<svg version="1.1" id="Layer_1" xmlns="http://www.w3.org/2000/svg" xmlns:xlink="http://www.w3.org/1999/xlink" x="0px" y="0px"
	 viewBox="0 0 600 600" style="enable-background:new 0 0 600 600;" xml:space="preserve">
<style type="text/css">
	.st0{fill:#00B7DC;}
	.st1{fill:#2B0633;}
	.st2{fill:#FF8700;}
	.st3{fill:#FFCB00;}
	.st4{fill:#FF461F;}
	.st5{fill:none;stroke:#2B0633;stroke-width:5;stroke-linecap:round;stroke-linejoin:round;stroke-miterlimit:10;}
	.st6{fill:#FFF7DB;}
</style>
<g id="Matt_Light">
	<rect class="st0" width="600" height="600"/>
	<circle class="st1" cx="298.6" cy="55" r="69.7"/>
	<path class="st1" d="M13.8,623.9c24.5-75.1,93.2-155.5,286.4-155.5c187.4,0,257.7,75.7,284.1,148.8
		C600.1,661.1,0.3,665.4,13.8,623.9z"/>
	<path class="st2" d="M329.8,533.5h-60c-22,0-40-18-40-40v-130c0-22,18-40,40-40h60c22,0,40,18,40,40v130
		C369.8,515.5,351.8,533.5,329.8,533.5z"/>
	<path class="st2" d="M128.3,302.1c13.8,23.9,59.4,58.1,83.3,44.3c23.9-13.8,17.1-70.4,3.3-94.3s-44.4-32.1-68.3-18.3
		C122.7,247.6,114.5,278.2,128.3,302.1z"/>
	<path class="st2" d="M469.9,302.1c-13.8,23.9-59.4,58.1-83.3,44.3c-23.9-13.8-17.1-70.4-3.3-94.3c13.8-23.9,44.4-32.1,68.3-18.3
		C475.5,247.6,483.7,278.2,469.9,302.1z"/>
	<path class="st1" d="M384.1,301h-170c-27.5,0-50-22.5-50-50V151c0-54,67-103.8,134.5-104s135.5,50,135.5,104v100
		C434.1,278.5,411.6,301,384.1,301z"/>
	<path class="st3" d="M179.1,285v-94c0-57,45.8-94,119.5-94c69.7,0,120.5,36,120.5,94v94c0,44.7-50,207.9-120,207.9
		S179.1,329.7,179.1,285z"/>
	<path class="st2" d="M336.9,353.1c0-1.8-0.2-3.8-0.7-5.9c-2.6-12.4-12-29.2-21.6-29.2v-76c0-6.6-5.4-12-12-12h-0.5h-5.5h-0.5
		c-6.6,0-12,5.4-12,12v76c-9.6,0-19,16.8-21.6,29.2c-0.5,2.1-0.7,4.1-0.7,5.9c0,4.1,1.3,6.9,4.3,6.9h0.5h65.5h0.5
		C335.7,360,337,357.2,336.9,353.1z"/>
	<path class="st2" d="M350.1,400.5c0-15.2-103-15.2-103,0h0.1c0,0.1-0.1,0.3-0.1,0.4c0,11.5,23.1,17.8,51.5,17.8s51.5-6.3,51.5-17.8
		C350.1,400.8,350.1,400.6,350.1,400.5L350.1,400.5z"/>
	<path class="st1" d="M231.7,205.3c-31.1,0-52.8,27.2-37.9,27.2h74.1C282.8,232.5,260.9,205.3,231.7,205.3z"/>
	<path class="st1" d="M366,205.3c31.1,0,52.8,27.2,37.9,27.2h-74.1C314.9,232.5,336.8,205.3,366,205.3z"/>
	<path class="st2" d="M194.4,248.6c0-7.8,69.8-12.7,69.8-4.9s0,44.1-35,44.1S194.4,256.4,194.4,248.6z"/>
	<path class="st2" d="M403.2,248.6c0-7.8-69.8-12.7-69.8-4.9s0,44.1,35,44.1S403.2,256.4,403.2,248.6z"/>
	<path class="st1" d="M194.4,248.6c0-7.8,69.8-12.7,69.8-4.9s-15.6,15.2-34.9,16.6C210.1,261.7,194.4,256.4,194.4,248.6z"/>
	<path class="st1" d="M403.2,248.6c0-7.8-69.8-12.7-69.8-4.9s15.6,15.2,34.9,16.6C387.6,261.7,403.2,256.4,403.2,248.6z"/>
	<line class="st5" x1="264.1" y1="401" x2="334.1" y2="401"/>
</g>
</svg>
