<?xml version="1.0" encoding="utf-8"?>
<!-- Generator: Adobe Illustrator 22.1.0, SVG Export Plug-In . SVG Version: 6.00 Build 0)  -->
<svg version="1.1" id="Layer_1" xmlns="http://www.w3.org/2000/svg" xmlns:xlink="http://www.w3.org/1999/xlink" x="0px" y="0px"
	 viewBox="0 0 600 600" style="enable-background:new 0 0 600 600;" xml:space="preserve">
<style type="text/css">
	.st0{fill:#00B7DC;}
	.st1{fill:#2B0633;}
	.st2{fill:#FF8700;}
	.st3{fill:#FFCB00;}
	.st4{fill:#FF461F;}
	.st5{fill:none;stroke:#2B0633;stroke-width:5;stroke-linecap:round;stroke-linejoin:round;stroke-miterlimit:10;}
	.st6{fill:#FFF7DB;}
</style>
<g id="Matt_Dark_1_">
	<rect y="-1" class="st3" width="600" height="600"/>
	<circle class="st1" cx="298.6" cy="54" r="69.7"/>
	<path class="st1" d="M13.8,622.9c24.5-75.1,93.2-155.5,286.4-155.5c187.4,0,257.7,75.7,284.1,148.8
		C600.1,660.1,0.3,664.4,13.8,622.9z"/>
	<path class="st4" d="M329.8,532.4h-60c-22,0-40-18-40-40v-130c0-22,18-40,40-40h60c22,0,40,18,40,40v130
		C369.8,514.4,351.8,532.4,329.8,532.4z"/>
	<path class="st4" d="M128.3,301.1c13.8,23.9,59.4,58.1,83.3,44.3s17.1-70.4,3.3-94.3s-44.4-32.1-68.3-18.3S114.5,277.1,128.3,301.1
		z"/>
	<path class="st4" d="M469.9,301.1c-13.8,23.9-59.4,58.1-83.3,44.3c-23.9-13.8-17.1-70.4-3.3-94.3c13.8-23.9,44.4-32.1,68.3-18.3
		C475.5,246.6,483.7,277.1,469.9,301.1z"/>
	<path class="st1" d="M384.1,300h-170c-27.5,0-50-22.5-50-50V150c0-54,67-103.8,134.5-104s135.5,50,135.5,104v100
		C434.1,277.5,411.6,300,384.1,300z"/>
	<path class="st2" d="M179.1,284v-94c0-57,45.8-94,119.5-94c69.7,0,120.5,36,120.5,94v94c0,44.7-50,207.9-120,207.9
		S179.1,328.6,179.1,284z"/>
	<path class="st4" d="M336.9,352c0-1.8-0.2-3.8-0.7-5.9c-2.6-12.4-12-29.2-21.6-29.2v-76c0-6.6-5.4-12-12-12h-0.5h-5.5h-0.5
		c-6.6,0-12,5.4-12,12v76c-9.6,0-19,16.8-21.6,29.2c-0.5,2.1-0.7,4.1-0.7,5.9c0,4.1,1.3,6.9,4.3,6.9h0.5h65.5h0.5
		C335.7,359,337,356.2,336.9,352z"/>
	<path class="st1" d="M231.7,204.3c-31.1,0-52.8,27.2-37.9,27.2h74.1C282.8,231.5,260.9,204.3,231.7,204.3z"/>
	<path class="st4" d="M194.4,247.6c0-7.8,69.8-12.7,69.8-4.9s0,44.1-35,44.1S194.4,255.4,194.4,247.6z"/>
	<path class="st6" d="M194.4,247.6c0-7.8,69.8-12.7,69.8-4.9s-15.6,15.2-34.9,16.6S194.4,255.4,194.4,247.6z"/>
	<path class="st1" d="M366,204.3c31.1,0,52.8,27.2,37.9,27.2h-74.1C314.9,231.5,336.8,204.3,366,204.3z"/>
	<path class="st4" d="M403.2,247.6c0-7.8-69.8-12.7-69.8-4.9s0,44.1,35,44.1S403.2,255.4,403.2,247.6z"/>
	<path class="st6" d="M403.2,247.6c0-7.8-69.8-12.7-69.8-4.9s15.6,15.2,34.9,16.6C387.6,260.6,403.2,255.4,403.2,247.6z"/>
	<path class="st4" d="M350.1,399.5c0-15.2-103-15.2-103,0h0.1c0,0.1-0.1,0.3-0.1,0.4c0,11.5,23.1,17.8,51.5,17.8s51.5-6.3,51.5-17.8
		C350.1,399.7,350.1,399.6,350.1,399.5L350.1,399.5z"/>
	<line class="st5" x1="264.1" y1="400" x2="334.1" y2="400"/>
</g>
</svg>
